<mxGraphModel dx="903" dy="663" grid="0" gridSize="10" guides="1" tooltips="1" connect="1" arrows="1" fold="1" page="1" pageScale="1.8" pageWidth="827" pageHeight="1169" math="1" shadow="0"><root><mxCell id="0"/><mxCell id="1" parent="0"/><mxCell id="Usa78mfqnxEJFx5QQ0PO-48" value="" style="rounded=1;whiteSpace=wrap;html=1;fillColor=none;arcSize=7;" parent="1" vertex="1"><mxGeometry x="230" y="171.5" width="410" height="260" as="geometry"/></mxCell><mxCell id="Usa78mfqnxEJFx5QQ0PO-62" style="edgeStyle=orthogonalEdgeStyle;rounded=0;orthogonalLoop=1;jettySize=auto;html=1;exitX=0.5;exitY=0;exitDx=0;exitDy=0;entryX=0.5;entryY=1;entryDx=0;entryDy=0;" parent="1" source="Usa78mfqnxEJFx5QQ0PO-10" target="Usa78mfqnxEJFx5QQ0PO-2" edge="1"><mxGeometry relative="1" as="geometry"/></mxCell><mxCell id="Usa78mfqnxEJFx5QQ0PO-10" value="`\sigma`" style="rounded=1;whiteSpace=wrap;html=1;arcSize=5;fillColor=light-dark(#66BFFF,#281D00);strokeColor=light-dark(#000000, #6d5100);fontFamily=Times New Roman;fontSize=17;" parent="1" vertex="1"><mxGeometry x="295" y="345" width="50" height="25" as="geometry"/></mxCell><mxCell id="Usa78mfqnxEJFx5QQ0PO-14" value="" style="group" parent="1" vertex="1" connectable="0"><mxGeometry x="305" y="185" width="30" height="30" as="geometry"/></mxCell><mxCell id="Usa78mfqnxEJFx5QQ0PO-2" value="" style="ellipse;whiteSpace=wrap;html=1;aspect=fixed;fillColor=light-dark(#B2D9FF,#B2D9FF);movable=1;resizable=1;rotatable=1;deletable=1;editable=1;locked=0;connectable=1;strokeWidth=2;" parent="Usa78mfqnxEJFx5QQ0PO-14" vertex="1"><mxGeometry width="30" height="30" as="geometry"/></mxCell><mxCell id="Usa78mfqnxEJFx5QQ0PO-11" value="" style="ellipse;whiteSpace=wrap;html=1;aspect=fixed;fillColor=light-dark(#B2D9FF,#B2D9FF);movable=1;resizable=1;rotatable=1;deletable=1;editable=1;locked=0;connectable=1;strokeWidth=2;" parent="Usa78mfqnxEJFx5QQ0PO-14" vertex="1"><mxGeometry x="8.4375" y="8.4375" width="13.125" height="13.125" as="geometry"/></mxCell><mxCell id="Usa78mfqnxEJFx5QQ0PO-13" value="" style="ellipse;whiteSpace=wrap;html=1;aspect=fixed;fillColor=light-dark(#000000,#B2D9FF);movable=1;resizable=1;rotatable=1;deletable=1;editable=1;locked=0;connectable=1;strokeWidth=2;" parent="Usa78mfqnxEJFx5QQ0PO-14" vertex="1"><mxGeometry x="13.364999999999995" y="13.357500000000002" width="3.2775" height="3.2775" as="geometry"/></mxCell><mxCell id="Usa78mfqnxEJFx5QQ0PO-63" style="edgeStyle=orthogonalEdgeStyle;rounded=1;orthogonalLoop=1;jettySize=auto;html=1;entryX=0;entryY=0.5;entryDx=0;entryDy=0;exitX=0.5;exitY=0;exitDx=0;exitDy=0;curved=0;" parent="1" target="Usa78mfqnxEJFx5QQ0PO-20" edge="1"><mxGeometry relative="1" as="geometry"><mxPoint x="400" y="350" as="sourcePoint"/><Array as="points"><mxPoint x="400" y="300"/></Array></mxGeometry></mxCell><mxCell id="Usa78mfqnxEJFx5QQ0PO-64" style="edgeStyle=orthogonalEdgeStyle;rounded=0;orthogonalLoop=1;jettySize=auto;html=1;entryX=0.5;entryY=1;entryDx=0;entryDy=0;" parent="1" target="Usa78mfqnxEJFx5QQ0PO-20" edge="1"><mxGeometry relative="1" as="geometry"><mxPoint x="480" y="346" as="sourcePoint"/></mxGeometry></mxCell><mxCell id="Usa78mfqnxEJFx5QQ0PO-17" value="`tanh`" style="rounded=1;whiteSpace=wrap;html=1;arcSize=5;fillColor=light-dark(#66BFFF,#281D00);strokeColor=light-dark(#000000, #6d5100);fontFamily=Times New Roman;fontSize=17;" parent="1" vertex="1"><mxGeometry x="456" y="345" width="50" height="25" as="geometry"/></mxCell><mxCell id="Usa78mfqnxEJFx5QQ0PO-65" style="edgeStyle=orthogonalEdgeStyle;rounded=0;orthogonalLoop=1;jettySize=auto;html=1;exitX=0.5;exitY=0;exitDx=0;exitDy=0;entryX=0.5;entryY=1;entryDx=0;entryDy=0;" parent="1" source="Usa78mfqnxEJFx5QQ0PO-18" target="Usa78mfqnxEJFx5QQ0PO-26" edge="1"><mxGeometry relative="1" as="geometry"/></mxCell><mxCell id="Usa78mfqnxEJFx5QQ0PO-18" value="`\sigma`" style="rounded=1;whiteSpace=wrap;html=1;arcSize=5;fillColor=light-dark(#66BFFF,#281D00);strokeColor=light-dark(#000000, #6d5100);fontFamily=Times New Roman;fontSize=17;" parent="1" vertex="1"><mxGeometry x="535" y="345" width="50" height="25" as="geometry"/></mxCell><mxCell id="Usa78mfqnxEJFx5QQ0PO-19" value="" style="group" parent="1" vertex="1" connectable="0"><mxGeometry x="465" y="285" width="30" height="30" as="geometry"/></mxCell><mxCell id="Usa78mfqnxEJFx5QQ0PO-20" value="" style="ellipse;whiteSpace=wrap;html=1;aspect=fixed;fillColor=light-dark(#B2D9FF,#B2D9FF);movable=1;resizable=1;rotatable=1;deletable=1;editable=1;locked=0;connectable=1;strokeWidth=2;" parent="Usa78mfqnxEJFx5QQ0PO-19" vertex="1"><mxGeometry width="30" height="30" as="geometry"/></mxCell><mxCell id="Usa78mfqnxEJFx5QQ0PO-21" value="" style="ellipse;whiteSpace=wrap;html=1;aspect=fixed;fillColor=light-dark(#B2D9FF,#B2D9FF);movable=1;resizable=1;rotatable=1;deletable=1;editable=1;locked=0;connectable=1;strokeWidth=2;" parent="Usa78mfqnxEJFx5QQ0PO-19" vertex="1"><mxGeometry x="8.4375" y="8.4375" width="13.125" height="13.125" as="geometry"/></mxCell><mxCell id="Usa78mfqnxEJFx5QQ0PO-22" value="" style="ellipse;whiteSpace=wrap;html=1;aspect=fixed;fillColor=light-dark(#000000,#B2D9FF);movable=1;resizable=1;rotatable=1;deletable=1;editable=1;locked=0;connectable=1;strokeWidth=2;" parent="Usa78mfqnxEJFx5QQ0PO-19" vertex="1"><mxGeometry x="13.364999999999995" y="13.357500000000002" width="3.2775" height="3.2775" as="geometry"/></mxCell><mxCell id="Usa78mfqnxEJFx5QQ0PO-67" style="edgeStyle=orthogonalEdgeStyle;rounded=0;orthogonalLoop=1;jettySize=auto;html=1;entryX=0.5;entryY=0;entryDx=0;entryDy=0;" parent="1" source="Usa78mfqnxEJFx5QQ0PO-24" target="Usa78mfqnxEJFx5QQ0PO-26" edge="1"><mxGeometry relative="1" as="geometry"/></mxCell><mxCell id="Usa78mfqnxEJFx5QQ0PO-24" value="`tanh`" style="ellipse;whiteSpace=wrap;html=1;fillColor=light-dark(#B2D9FF,#B2D9FF);fontSize=17;fontFamily=Times New Roman;" parent="1" vertex="1"><mxGeometry x="535" y="226" width="50" height="28" as="geometry"/></mxCell><mxCell id="Usa78mfqnxEJFx5QQ0PO-25" value="" style="group" parent="1" vertex="1" connectable="0"><mxGeometry x="545" y="285" width="30" height="30" as="geometry"/></mxCell><mxCell id="Usa78mfqnxEJFx5QQ0PO-68" style="edgeStyle=orthogonalEdgeStyle;rounded=1;orthogonalLoop=1;jettySize=auto;html=1;exitX=1;exitY=0.5;exitDx=0;exitDy=0;curved=0;" parent="Usa78mfqnxEJFx5QQ0PO-25" source="Usa78mfqnxEJFx5QQ0PO-26" edge="1"><mxGeometry relative="1" as="geometry"><mxPoint x="175" y="85" as="targetPoint"/><Array as="points"><mxPoint x="65" y="15"/><mxPoint x="65" y="85"/></Array></mxGeometry></mxCell><mxCell id="Usa78mfqnxEJFx5QQ0PO-26" value="" style="ellipse;whiteSpace=wrap;html=1;aspect=fixed;fillColor=light-dark(#B2D9FF,#B2D9FF);movable=1;resizable=1;rotatable=1;deletable=1;editable=1;locked=0;connectable=1;strokeWidth=2;" parent="Usa78mfqnxEJFx5QQ0PO-25" vertex="1"><mxGeometry width="30" height="30" as="geometry"/></mxCell><mxCell id="Usa78mfqnxEJFx5QQ0PO-27" value="" style="ellipse;whiteSpace=wrap;html=1;aspect=fixed;fillColor=light-dark(#B2D9FF,#B2D9FF);movable=1;resizable=1;rotatable=1;deletable=1;editable=1;locked=0;connectable=1;strokeWidth=2;" parent="Usa78mfqnxEJFx5QQ0PO-25" vertex="1"><mxGeometry x="8.4375" y="8.4375" width="13.125" height="13.125" as="geometry"/></mxCell><mxCell id="Usa78mfqnxEJFx5QQ0PO-28" value="" style="ellipse;whiteSpace=wrap;html=1;aspect=fixed;fillColor=light-dark(#000000,#B2D9FF);movable=1;resizable=1;rotatable=1;deletable=1;editable=1;locked=0;connectable=1;strokeWidth=2;" parent="Usa78mfqnxEJFx5QQ0PO-25" vertex="1"><mxGeometry x="13.364999999999995" y="13.357500000000002" width="3.2775" height="3.2775" as="geometry"/></mxCell><mxCell id="Usa78mfqnxEJFx5QQ0PO-29" value="" style="group;fontFamily=Times New Roman;fontSize=16;strokeWidth=4;" parent="1" vertex="1" connectable="0"><mxGeometry x="465" y="185" width="30" height="30" as="geometry"/></mxCell><mxCell id="Usa78mfqnxEJFx5QQ0PO-35" style="edgeStyle=orthogonalEdgeStyle;rounded=0;orthogonalLoop=1;jettySize=auto;html=1;" parent="Usa78mfqnxEJFx5QQ0PO-29" source="Usa78mfqnxEJFx5QQ0PO-30" edge="1"><mxGeometry relative="1" as="geometry"><mxPoint x="216.3333468967014" y="15" as="targetPoint"/></mxGeometry></mxCell><mxCell id="Usa78mfqnxEJFx5QQ0PO-30" value="&lt;font style=&quot;font-size: 18px;&quot;&gt;`+`&lt;/font&gt;" style="ellipse;whiteSpace=wrap;html=1;aspect=fixed;fillColor=light-dark(#B2D9FF,#B2D9FF);movable=1;resizable=1;rotatable=1;deletable=1;editable=1;locked=0;connectable=1;strokeWidth=2;" parent="Usa78mfqnxEJFx5QQ0PO-29" vertex="1"><mxGeometry width="30" height="30" as="geometry"/></mxCell><mxCell id="Usa78mfqnxEJFx5QQ0PO-33" value="" style="endArrow=classic;html=1;rounded=0;entryX=0;entryY=0.5;entryDx=0;entryDy=0;" parent="1" target="Usa78mfqnxEJFx5QQ0PO-2" edge="1"><mxGeometry width="50" height="50" relative="1" as="geometry"><mxPoint x="200" y="200" as="sourcePoint"/><mxPoint x="300" y="200" as="targetPoint"/></mxGeometry></mxCell><mxCell id="Usa78mfqnxEJFx5QQ0PO-34" style="edgeStyle=orthogonalEdgeStyle;rounded=0;orthogonalLoop=1;jettySize=auto;html=1;entryX=0;entryY=0.5;entryDx=0;entryDy=0;" parent="1" source="Usa78mfqnxEJFx5QQ0PO-2" target="Usa78mfqnxEJFx5QQ0PO-30" edge="1"><mxGeometry relative="1" as="geometry"/></mxCell><mxCell id="Usa78mfqnxEJFx5QQ0PO-36" value="" style="curved=1;endArrow=classic;html=1;rounded=0;exitX=1;exitY=0.5;exitDx=0;exitDy=0;entryX=0.5;entryY=0;entryDx=0;entryDy=0;" parent="1" source="Usa78mfqnxEJFx5QQ0PO-30" target="Usa78mfqnxEJFx5QQ0PO-24" edge="1"><mxGeometry width="50" height="50" relative="1" as="geometry"><mxPoint x="380" y="230" as="sourcePoint"/><mxPoint x="560" y="220" as="targetPoint"/><Array as="points"><mxPoint x="540" y="200"/><mxPoint x="560" y="200"/></Array></mxGeometry></mxCell><mxCell id="Usa78mfqnxEJFx5QQ0PO-40" value="" style="group" parent="1" vertex="1" connectable="0"><mxGeometry x="140" y="179.5" width="50" height="41" as="geometry"/></mxCell><mxCell id="Usa78mfqnxEJFx5QQ0PO-38" value="记忆" style="rounded=1;whiteSpace=wrap;html=1;fillColor=none;strokeColor=none;fontFamily=宋体;fontSize=17;" parent="Usa78mfqnxEJFx5QQ0PO-40" vertex="1"><mxGeometry width="50" height="20" as="geometry"/></mxCell><mxCell id="Usa78mfqnxEJFx5QQ0PO-39" value="`C_{t-1}`" style="rounded=1;whiteSpace=wrap;html=1;fillColor=none;strokeColor=none;fontFamily=Times New Roman;fontSize=17;" parent="Usa78mfqnxEJFx5QQ0PO-40" vertex="1"><mxGeometry y="21" width="50" height="20" as="geometry"/></mxCell><mxCell id="Usa78mfqnxEJFx5QQ0PO-41" value="" style="group" parent="1" vertex="1" connectable="0"><mxGeometry x="140" y="379" width="60" height="41" as="geometry"/></mxCell><mxCell id="Usa78mfqnxEJFx5QQ0PO-42" value="隐状态" style="rounded=1;whiteSpace=wrap;html=1;fillColor=none;strokeColor=none;fontFamily=宋体;fontSize=17;" parent="Usa78mfqnxEJFx5QQ0PO-41" vertex="1"><mxGeometry width="60" height="20" as="geometry"/></mxCell><mxCell id="Usa78mfqnxEJFx5QQ0PO-43" value="`H_{t-1}`" style="rounded=1;whiteSpace=wrap;html=1;fillColor=none;strokeColor=none;fontFamily=Times New Roman;fontSize=17;" parent="Usa78mfqnxEJFx5QQ0PO-41" vertex="1"><mxGeometry y="21" width="50" height="20" as="geometry"/></mxCell><mxCell id="Usa78mfqnxEJFx5QQ0PO-45" value="" style="endArrow=none;html=1;rounded=0;startFill=0;" parent="1" edge="1"><mxGeometry width="50" height="50" relative="1" as="geometry"><mxPoint x="200" y="400" as="sourcePoint"/><mxPoint x="540" y="400" as="targetPoint"/></mxGeometry></mxCell><mxCell id="Usa78mfqnxEJFx5QQ0PO-47" value="" style="curved=1;endArrow=classic;html=1;rounded=0;exitX=1;exitY=0.5;exitDx=0;exitDy=0;entryX=0.5;entryY=1;entryDx=0;entryDy=0;" parent="1" target="Usa78mfqnxEJFx5QQ0PO-18" edge="1"><mxGeometry width="50" height="50" relative="1" as="geometry"><mxPoint x="495" y="400" as="sourcePoint"/><mxPoint x="560" y="426" as="targetPoint"/><Array as="points"><mxPoint x="540" y="400"/><mxPoint x="560" y="400"/><mxPoint x="560" y="390"/></Array></mxGeometry></mxCell><mxCell id="Usa78mfqnxEJFx5QQ0PO-49" value="" style="curved=1;endArrow=classic;html=1;rounded=0;exitX=1;exitY=0.5;exitDx=0;exitDy=0;entryX=0.5;entryY=1;entryDx=0;entryDy=0;" parent="1" edge="1"><mxGeometry width="50" height="50" relative="1" as="geometry"><mxPoint x="414" y="400" as="sourcePoint"/><mxPoint x="479" y="370" as="targetPoint"/><Array as="points"><mxPoint x="459" y="400"/><mxPoint x="479" y="400"/><mxPoint x="479" y="390"/></Array></mxGeometry></mxCell><mxCell id="Usa78mfqnxEJFx5QQ0PO-50" value="" style="curved=1;endArrow=classic;html=1;rounded=0;exitX=1;exitY=0.5;exitDx=0;exitDy=0;entryX=0.5;entryY=1;entryDx=0;entryDy=0;" parent="1" edge="1"><mxGeometry width="50" height="50" relative="1" as="geometry"><mxPoint x="335" y="400" as="sourcePoint"/><mxPoint x="400" y="370" as="targetPoint"/><Array as="points"><mxPoint x="380" y="400"/><mxPoint x="400" y="400"/><mxPoint x="400" y="390"/></Array></mxGeometry></mxCell><mxCell id="Usa78mfqnxEJFx5QQ0PO-51" value="" style="curved=1;endArrow=classic;html=1;rounded=0;exitX=1;exitY=0.5;exitDx=0;exitDy=0;" parent="1" edge="1"><mxGeometry width="50" height="50" relative="1" as="geometry"><mxPoint x="255" y="400" as="sourcePoint"/><mxPoint x="320" y="370" as="targetPoint"/><Array as="points"><mxPoint x="300" y="400"/><mxPoint x="320" y="400"/><mxPoint x="320" y="390"/></Array></mxGeometry></mxCell><mxCell id="Usa78mfqnxEJFx5QQ0PO-55" value="" style="curved=0;endArrow=none;html=1;rounded=1;startSize=1;shadow=0;startFill=0;" parent="1" edge="1"><mxGeometry width="50" height="50" relative="1" as="geometry"><mxPoint x="280" y="460" as="sourcePoint"/><mxPoint x="310" y="400" as="targetPoint"/><Array as="points"><mxPoint x="280" y="400"/></Array></mxGeometry></mxCell><mxCell id="Usa78mfqnxEJFx5QQ0PO-60" value="" style="group" parent="1" vertex="1" connectable="0"><mxGeometry x="240" y="460" width="80" height="21" as="geometry"/></mxCell><mxCell id="Usa78mfqnxEJFx5QQ0PO-58" value="`X_t`" style="rounded=1;whiteSpace=wrap;html=1;fillColor=none;strokeColor=none;fontFamily=Times New Roman;fontSize=17;" parent="Usa78mfqnxEJFx5QQ0PO-60" vertex="1"><mxGeometry x="30" width="50" height="20" as="geometry"/></mxCell><mxCell id="Usa78mfqnxEJFx5QQ0PO-57" value="输入" style="rounded=1;whiteSpace=wrap;html=1;fillColor=none;strokeColor=none;fontFamily=宋体;fontSize=17;" parent="Usa78mfqnxEJFx5QQ0PO-60" vertex="1"><mxGeometry y="1" width="50" height="20" as="geometry"/></mxCell><mxCell id="Usa78mfqnxEJFx5QQ0PO-66" style="edgeStyle=orthogonalEdgeStyle;rounded=0;orthogonalLoop=1;jettySize=auto;html=1;exitX=0.5;exitY=0;exitDx=0;exitDy=0;entryX=0.5;entryY=1;entryDx=0;entryDy=0;" parent="1" source="Usa78mfqnxEJFx5QQ0PO-20" target="Usa78mfqnxEJFx5QQ0PO-30" edge="1"><mxGeometry relative="1" as="geometry"/></mxCell><mxCell id="Usa78mfqnxEJFx5QQ0PO-69" value="" style="group" parent="1" vertex="1" connectable="0"><mxGeometry x="250" y="300" width="60" height="41" as="geometry"/></mxCell><mxCell id="Usa78mfqnxEJFx5QQ0PO-70" value="输入门" style="rounded=1;whiteSpace=wrap;html=1;fillColor=none;strokeColor=none;fontFamily=宋体;fontSize=17;" parent="Usa78mfqnxEJFx5QQ0PO-69" vertex="1"><mxGeometry width="60" height="20" as="geometry"/></mxCell><mxCell id="Usa78mfqnxEJFx5QQ0PO-71" value="`F_t`" style="rounded=1;whiteSpace=wrap;html=1;fillColor=none;strokeColor=none;fontFamily=Times New Roman;fontSize=17;" parent="Usa78mfqnxEJFx5QQ0PO-69" vertex="1"><mxGeometry y="21" width="50" height="20" as="geometry"/></mxCell><mxCell id="Usa78mfqnxEJFx5QQ0PO-72" value="" style="group" parent="1" vertex="1" connectable="0"><mxGeometry x="340" y="300" width="60" height="41" as="geometry"/></mxCell><mxCell id="Usa78mfqnxEJFx5QQ0PO-73" value="输入门" style="rounded=1;whiteSpace=wrap;html=1;fillColor=none;strokeColor=none;fontFamily=宋体;fontSize=17;" parent="Usa78mfqnxEJFx5QQ0PO-72" vertex="1"><mxGeometry width="60" height="20" as="geometry"/></mxCell><mxCell id="Usa78mfqnxEJFx5QQ0PO-74" value="`I_t`" style="rounded=1;whiteSpace=wrap;html=1;fillColor=none;strokeColor=none;fontFamily=Times New Roman;fontSize=17;" parent="Usa78mfqnxEJFx5QQ0PO-72" vertex="1"><mxGeometry y="21" width="50" height="20" as="geometry"/></mxCell><mxCell id="Usa78mfqnxEJFx5QQ0PO-75" value="" style="group" parent="1" vertex="1" connectable="0"><mxGeometry x="414" y="310.5" width="60" height="41" as="geometry"/></mxCell><mxCell id="Usa78mfqnxEJFx5QQ0PO-76" value="候选记忆" style="rounded=1;whiteSpace=wrap;html=1;fillColor=none;strokeColor=none;fontFamily=宋体;fontSize=17;" parent="Usa78mfqnxEJFx5QQ0PO-75" vertex="1"><mxGeometry x="-10" width="70" height="20" as="geometry"/></mxCell><mxCell id="Usa78mfqnxEJFx5QQ0PO-78" value="" style="group" parent="1" vertex="1" connectable="0"><mxGeometry x="500" y="310.5" width="60" height="41" as="geometry"/></mxCell><mxCell id="Usa78mfqnxEJFx5QQ0PO-79" value="输出门" style="rounded=1;whiteSpace=wrap;html=1;fillColor=none;strokeColor=none;fontFamily=宋体;fontSize=17;" parent="Usa78mfqnxEJFx5QQ0PO-78" vertex="1"><mxGeometry width="60" height="20" as="geometry"/></mxCell><mxCell id="Usa78mfqnxEJFx5QQ0PO-80" value="`O_t`" style="rounded=1;whiteSpace=wrap;html=1;fillColor=none;strokeColor=none;fontFamily=Times New Roman;fontSize=17;" parent="Usa78mfqnxEJFx5QQ0PO-78" vertex="1"><mxGeometry y="19" width="50" height="20" as="geometry"/></mxCell><mxCell id="Usa78mfqnxEJFx5QQ0PO-81" value="`\tilde{C}_{t}`" style="text;html=1;align=center;verticalAlign=middle;resizable=0;points=[];autosize=1;strokeColor=none;fillColor=none;" parent="1" vertex="1"><mxGeometry x="395" y="323.5" width="90" height="30" as="geometry"/></mxCell><mxCell id="Usa78mfqnxEJFx5QQ0PO-87" value="`\sigma`" style="rounded=1;whiteSpace=wrap;html=1;arcSize=5;fillColor=light-dark(#66BFFF,#281D00);strokeColor=light-dark(#000000, #6d5100);fontFamily=Times New Roman;fontSize=17;" parent="1" vertex="1"><mxGeometry x="375" y="345" width="50" height="25" as="geometry"/></mxCell><mxCell id="Usa78mfqnxEJFx5QQ0PO-88" value="" style="group" parent="1" vertex="1" connectable="0"><mxGeometry x="690" y="179.5" width="50" height="41" as="geometry"/></mxCell><mxCell id="Usa78mfqnxEJFx5QQ0PO-89" value="记忆" style="rounded=1;whiteSpace=wrap;html=1;fillColor=none;strokeColor=none;fontFamily=宋体;fontSize=17;" parent="Usa78mfqnxEJFx5QQ0PO-88" vertex="1"><mxGeometry width="50" height="20" as="geometry"/></mxCell><mxCell id="Usa78mfqnxEJFx5QQ0PO-90" value="`C_{t}`" style="rounded=1;whiteSpace=wrap;html=1;fillColor=none;strokeColor=none;fontFamily=Times New Roman;fontSize=17;" parent="Usa78mfqnxEJFx5QQ0PO-88" vertex="1"><mxGeometry y="21" width="50" height="20" as="geometry"/></mxCell><mxCell id="Usa78mfqnxEJFx5QQ0PO-91" value="`H_{t}`" style="rounded=1;whiteSpace=wrap;html=1;fillColor=none;strokeColor=none;fontFamily=Times New Roman;fontSize=17;" parent="1" vertex="1"><mxGeometry x="720" y="370" width="50" height="20" as="geometry"/></mxCell><mxCell id="Usa78mfqnxEJFx5QQ0PO-92" value="隐状态" style="rounded=1;whiteSpace=wrap;html=1;fillColor=none;strokeColor=none;fontFamily=宋体;fontSize=17;" parent="1" vertex="1"><mxGeometry x="720" y="350" width="60" height="20" as="geometry"/></mxCell></root></mxGraphModel>